<svg xmlns="http://www.w3.org/2000/svg" viewBox="0 0 1200 520" width="100%" height="100%">
  <defs>
    <linearGradient id="g1" x1="0%" y1="0%" x2="100%" y2="100%">
      <stop offset="0%" stop-color="#1E1B4B" />
      <stop offset="100%" stop-color="#4F46E5" />
    </linearGradient>
    <pattern id="indianPattern" x="0" y="0" width="40" height="40" patternUnits="userSpaceOnUse">
      <circle cx="20" cy="20" r="2" fill="#F59E0B" opacity="0.15"/>
      <path d="M 20 0 L 40 20 L 20 40 L 0 20 Z" fill="none" stroke="#F59E0B" stroke-width="0.5" opacity="0.15"/>
    </pattern>
  </defs>
  <rect width="100%" height="100%" fill="url(#g1)" />
  <rect width="100%" height="100%" fill="url(#indianPattern)" />
  <circle cx="950" cy="260" r="180" fill="#F59E0B" opacity="0.08" />
  <!-- stylized Kurta outline graphic in background -->
  <g transform="translate(850, 110) scale(0.6)" opacity="0.75" stroke="#F59E0B" stroke-width="4" fill="none">
    <path d="M150,50 L200,90 L230,220 L190,230 L170,140 L170,400 L80,400 L80,140 L60,230 L20,220 L50,90 Z" />
    <path d="M100,50 C100,70 150,70 150,50" />
    <line x1="125" y1="70" x2="125" y2="170" />
  </g>
</svg>